<svg width="132" height="52" viewBox="0 0 132 52" fill="none" xmlns="http://www.w3.org/2000/svg" class="w-auto h-11">
<g clip-path="url(#clip0_5556_21133)">
<path d="M26.3826 32.0751C25.1539 32.7422 23.8011 33.234 22.3229 33.5853C20.8453 33.936 19.2779 34.0942 17.6221 34.0942C12.5483 34.0942 8.48863 32.549 5.44366 29.4565C2.39869 26.3662 0.867661 22.2382 0.867661 17.0731C0.867661 14.2458 1.33046 11.7327 2.2568 9.50338C3.18166 7.27183 4.57155 5.37532 6.42275 3.79452C7.89414 2.53025 9.60068 1.56893 11.4445 0.965718C13.3127 0.333547 15.3779 0.0170898 17.6213 0.0170898C22.6787 0.0170898 26.7377 1.56298 29.8005 4.67258C32.8633 7.78069 34.3765 11.9095 34.3765 17.0731C34.3765 19.2348 34.1276 21.1841 33.6113 22.9402C33.1161 24.6518 32.3136 26.259 31.2431 27.6833C32.1779 28.4906 33.2283 29.1534 34.3594 29.6497C35.4811 30.1422 36.6919 30.4408 37.9912 30.5812L35.516 36.3948C33.647 36.2195 31.9369 35.7634 30.4059 35.025C28.8835 34.3157 27.516 33.313 26.3818 32.0743L26.3826 32.0751ZM17.6221 27.2792C20.2577 27.2792 22.305 26.3833 23.7655 24.5908C25.243 22.8005 25.9733 20.3053 25.9733 17.0909C25.9733 13.8766 25.2252 11.365 23.7477 9.57321C22.2694 7.74578 20.2221 6.85063 17.6228 6.85063C15.0228 6.85063 12.9926 7.76435 11.4972 9.59178C10.0018 11.3999 9.25377 13.9122 9.25377 17.0909C9.25377 20.2703 10.0018 22.7641 11.4794 24.5737C12.9577 26.3833 15.005 27.2785 17.6228 27.2785V27.2792H17.6221Z" fill="#1E8D44"></path>
<path d="M68.3145 25.838C66.73 28.6141 64.7354 30.6867 62.3672 32.0743C59.9812 33.4612 57.2214 34.1469 54.0524 34.1469C49.0664 34.1469 45.1144 32.6018 42.1935 29.5263C39.2555 26.4531 37.7779 22.308 37.7779 17.0909C37.7779 11.98 39.3097 7.85199 42.3717 4.7253C45.4331 1.59862 49.4578 0.0356445 54.4432 0.0356445C57.578 0.0356445 60.3021 0.736902 62.6168 2.14239C64.9316 3.54862 66.73 5.58553 68.0122 8.2561L61.6199 11.417C60.8711 9.85473 59.8928 8.67656 58.6633 7.86907C57.4354 7.06159 56.0113 6.65822 54.3904 6.65822C51.8625 6.65822 49.8679 7.58753 48.3904 9.43279C46.9121 11.2766 46.1826 13.8231 46.1826 17.0731C46.1826 20.3402 46.9113 22.8874 48.3718 24.697C49.8322 26.5059 51.8617 27.401 54.4966 27.401C56.1532 27.401 57.578 27.0147 58.7889 26.26C59.999 25.4874 61.0137 24.3449 61.8153 22.7998L68.3145 25.838ZM82.8968 34.0942C78.927 34.0942 75.7208 32.9175 73.2991 30.5634C70.8774 28.2092 69.668 25.1011 69.668 21.2182C69.668 17.3724 70.8781 14.2458 73.3177 11.8738C75.7565 9.50262 78.9441 8.32593 82.9154 8.32593C86.9209 8.32593 90.1434 9.50262 92.5651 11.8738C94.9868 14.2458 96.1977 17.3546 96.1977 21.219C96.1977 25.0833 94.969 28.1922 92.5294 30.5455C90.0906 32.9175 86.8852 34.0949 82.8968 34.0949V34.0942ZM77.2526 21.2182C77.2526 23.4319 77.7689 25.171 78.7829 26.471C79.8169 27.771 81.1868 28.421 82.8968 28.421C84.624 28.421 85.9953 27.7702 87.0278 26.471C88.0604 25.171 88.5767 23.4148 88.5767 21.219C88.5767 19.0231 88.0604 17.267 87.0457 15.9491C86.0131 14.6491 84.6418 13.9999 82.9154 13.9999C81.2053 13.9999 79.8518 14.667 78.8193 15.9848C77.7689 17.3019 77.2526 19.0587 77.2526 21.2182ZM99.4388 33.3045V9.11707H106.863V11.365C107.824 10.4156 108.893 9.71433 110.086 9.25673C111.279 8.80062 112.632 8.55473 114.127 8.55473C116.798 8.55473 118.792 9.3793 120.092 11.0485C121.392 12.717 122.051 15.2642 122.051 18.7074V33.3045H114.626V19.0587C114.626 17.4259 114.341 16.2314 113.754 15.4581C113.167 14.6855 112.24 14.3163 110.976 14.3163C109.48 14.3163 108.43 14.6684 107.789 15.3875C107.148 16.1081 106.846 17.3204 106.846 19.0595V33.3045H99.438H99.4388Z" fill="#2B6CAD"></path>
<path d="M92.3461 50.8263C91.8862 50.8263 91.5007 50.6086 91.3038 50.235H91.2555V50.7698H90.6286V46.0571H91.2801V47.9187H91.3321C91.5066 47.5473 91.8944 47.3244 92.3461 47.3244C93.1818 47.3244 93.7092 47.996 93.7092 49.0739C93.7092 50.1473 93.1788 50.827 92.3468 50.827H92.3461V50.8263ZM92.1589 47.9247C91.6129 47.9247 91.2704 48.3667 91.2674 49.0768C91.2704 49.787 91.6106 50.2253 92.1589 50.2253C92.7101 50.2253 93.0399 49.793 93.0399 49.0739C93.0399 48.3607 92.7093 47.9247 92.1589 47.9247V47.9247ZM94.8183 52C95.4906 52 95.8026 51.7348 96.0841 50.911L97.3143 47.3794H96.6234L95.8003 50.0723H95.7483L94.9208 47.3794H94.2121L95.4051 50.7817L95.3569 50.9474C95.2454 51.2891 95.0694 51.4206 94.7603 51.4206C94.6895 51.421 94.6188 51.4166 94.5486 51.4072V51.9836C94.6088 51.9926 94.7641 51.9992 94.8183 51.9992V52Z" class="fill-current text-skin-base"></path>
<path d="M103.06 51.0952H101.029V42.4937H103.06V51.0952ZM104.365 51.0952V44.7534H106.223V45.3425C106.451 45.1011 106.727 44.9131 107.032 44.7906C107.354 44.665 107.697 44.6024 108.043 44.6063C108.711 44.6063 109.21 44.8225 109.534 45.2601C109.86 45.6976 110.024 46.3654 110.024 47.2673V51.0945H108.167V47.3601C108.167 46.933 108.096 46.6195 107.95 46.4167C107.802 46.2139 107.571 46.1173 107.254 46.1173C106.882 46.1173 106.619 46.2094 106.458 46.3981C106.302 46.5875 106.222 46.9047 106.222 47.3601V51.0959H104.365V51.0952ZM111.396 51.0952V46.0274H110.46V44.8582H111.396C111.383 44.7274 111.378 44.6301 111.374 44.5744C111.374 44.5135 111.369 44.463 111.369 44.411C111.369 43.7335 111.528 43.2462 111.842 42.9446C112.155 42.6474 112.672 42.4937 113.387 42.4937C113.548 42.4937 113.709 42.5028 113.869 42.5211C114.032 42.5405 114.2 42.5731 114.377 42.6192V43.9563H114.068C113.728 43.9563 113.507 43.9987 113.396 44.0863C113.286 44.1755 113.233 44.3463 113.233 44.6108V44.8582H114.377V46.0274H113.237V51.0952H111.396ZM117.706 51.5476C116.707 51.5476 115.901 51.2304 115.291 50.5967C114.682 49.9616 114.377 49.1251 114.377 48.0785C114.377 47.0429 114.682 46.2013 115.296 45.5624C115.905 44.9273 116.712 44.6063 117.707 44.6063C118.716 44.6063 119.527 44.9235 120.136 45.5624C120.746 46.2013 121.051 47.0385 121.051 48.0792C121.051 49.1155 120.742 49.9527 120.127 50.5915C119.518 51.2304 118.712 51.5476 117.706 51.5476V51.5476ZM116.287 48.0792C116.287 48.675 116.417 49.1437 116.673 49.4936C116.933 49.8435 117.277 50.0188 117.708 50.0188C118.138 50.0188 118.488 49.8435 118.748 49.4936C119.008 49.1437 119.138 48.6705 119.138 48.0844C119.138 47.4879 119.008 47.0191 118.752 46.6641C118.492 46.3142 118.147 46.1396 117.712 46.1396C117.282 46.1396 116.941 46.3186 116.681 46.6745C116.417 47.0236 116.288 47.4968 116.288 48.0792H116.287Z" fill="#2B6CAD"></path>
<path d="M128.308 50.8531C127.989 51.0331 127.648 51.1681 127.292 51.2542C126.908 51.3474 126.513 51.3925 126.117 51.3887C124.848 51.3887 123.832 50.9793 123.065 50.1585C122.305 49.3376 121.921 48.2419 121.921 46.8706C121.921 46.1203 122.037 45.4532 122.269 44.8604C122.493 44.2805 122.85 43.7614 123.311 43.345C123.675 43.0124 124.102 42.7572 124.567 42.5947C125.064 42.4221 125.587 42.3369 126.113 42.3429C127.378 42.3429 128.393 42.7529 129.159 43.5783C129.925 44.4043 130.304 45.5 130.304 46.8706C130.304 47.4441 130.241 47.9626 130.112 48.4284C129.99 48.8792 129.789 49.3051 129.52 49.6868C129.761 49.9067 130.019 50.079 130.299 50.209C130.587 50.3402 130.894 50.4237 131.208 50.4564L130.588 52C130.143 51.96 129.709 51.8365 129.31 51.636C128.927 51.4448 128.586 51.1786 128.308 50.8531V50.8531ZM126.113 49.5805C126.772 49.5805 127.283 49.3428 127.649 48.8659C128.018 48.3905 128.201 47.7279 128.201 46.8751C128.201 46.0223 128.014 45.3552 127.644 44.879C127.275 44.3991 126.762 44.1621 126.108 44.1621C125.457 44.1621 124.95 44.4036 124.576 44.8887C124.202 45.3737 124.019 46.0364 124.019 46.8795C124.019 47.7241 124.206 48.386 124.576 48.8659C124.95 49.3421 125.462 49.5805 126.112 49.5805H126.113Z" fill="#1E8D44"></path>
<path d="M0.407059 48.7329H1.99974C2.07626 49.3844 2.75523 49.8116 3.63032 49.8116C4.51209 49.8116 5.1138 49.3896 5.1138 48.8095C5.1138 48.2954 4.73643 48.0109 3.78409 47.7969L2.75523 47.5726C1.29923 47.2606 0.582373 46.5222 0.582373 45.3671C0.582373 43.9111 1.84077 42.9476 3.60357 42.9476C5.44214 42.9476 6.59729 43.8947 6.62477 45.3232H5.07592C5.02095 44.6554 4.43483 44.2505 3.60877 44.2505C2.79312 44.2505 2.24563 44.6391 2.24563 45.2244C2.24563 45.7117 2.62894 45.9859 3.5382 46.1939L4.49574 46.3959C6.07729 46.7354 6.76666 47.4136 6.76666 48.6178C6.76666 50.1503 5.5246 51.119 3.56494 51.119C1.66546 51.119 0.456087 50.2164 0.407059 48.7329V48.7329ZM12.6211 50.9823L12.0194 49.0672H9.24409L8.64237 50.9823H6.94643L9.68832 43.0857H11.6316L14.3787 50.9831H12.6219L12.6211 50.9823ZM10.6124 44.5952L9.59992 47.8296H11.6636L10.6511 44.5952H10.6124ZM16.5999 50.9823H15.0176V43.0857H16.3971L20.0861 48.23H20.1299V43.0857H21.7115V50.9823H20.3431L16.6489 45.8105H16.5991V50.9823H16.5999ZM26.5638 50.9823H24.9109V43.0857H30.0835V44.4481H26.5645V46.5668H29.7774V47.8742H26.5645V50.9831L26.5638 50.9823ZM32.5453 44.3761V46.8944H33.9686C34.8006 46.8944 35.2872 46.4182 35.2872 45.6352C35.2872 44.8693 34.7731 44.3761 33.9523 44.3761H32.5453ZM32.5453 48.0926V50.9823H30.8924V43.0857H34.1268C35.9439 43.0857 36.9839 44.0433 36.9839 45.6033C36.9839 46.6158 36.4587 47.4916 35.5501 47.8467L37.2141 50.9831H35.3421L33.8698 48.0933H32.5453V48.0926ZM43.0745 50.9823L42.4728 49.0672H39.6983L39.0965 50.9823H37.3999L40.1417 43.0857H42.0851L44.8314 50.9823H43.0745ZM41.0659 44.5952L40.0533 47.8296H42.117L41.1045 44.5952H41.0659ZM47.0533 50.9823H45.471V43.0857H46.8505L50.5395 48.23H50.5834V43.0857H52.1649V50.9823H50.7966L47.1023 45.8105H47.0525V50.9823H47.0533ZM56.8048 51.119C54.5064 51.119 53.0667 49.5813 53.0667 47.0311C53.0667 44.486 54.5175 42.9476 56.8048 42.9476C58.7043 42.9476 60.1491 44.1517 60.2754 45.9197H58.6656C58.5126 44.9511 57.7683 44.3159 56.8048 44.3159C55.5568 44.3159 54.753 45.3619 54.753 47.0251C54.753 48.7114 55.5464 49.7514 56.8107 49.7514C57.7906 49.7514 58.497 49.1764 58.6716 48.2404H60.2806C60.0949 50.0025 58.7429 51.119 56.8048 51.119V51.119ZM62.7863 50.9823H61.1334V43.0857H62.7863V50.9823ZM63.6391 48.7329H65.2318C65.3083 49.3844 65.9872 49.8116 66.8631 49.8116C67.7441 49.8116 68.3458 49.3896 68.3458 48.8095C68.3458 48.2954 67.9684 48.0109 67.0161 47.7969L65.9872 47.5726C64.5312 47.2606 63.8144 46.5222 63.8144 45.3671C63.8144 43.9111 65.0735 42.9476 66.8356 42.9476C68.6742 42.9476 69.8293 43.8947 69.8568 45.3232H68.3079C68.253 44.6554 67.6676 44.2505 66.8408 44.2505C66.0259 44.2505 65.4784 44.6391 65.4784 45.2244C65.4784 45.7117 65.861 45.9859 66.7702 46.1939L67.7278 46.3959C69.31 46.7354 69.9987 47.4136 69.9987 48.6178C69.9987 50.1503 68.7566 51.119 66.797 51.119C64.8982 51.119 63.6881 50.2164 63.6398 48.7329H63.6391ZM74.3384 51.119C72.0393 51.119 70.6004 49.5813 70.6004 47.0311C70.6004 44.486 72.0504 42.9476 74.3384 42.9476C76.2372 42.9476 77.682 44.1517 77.8076 45.9197H76.1993C76.0463 44.9511 75.3019 44.3159 74.3384 44.3159C73.0904 44.3159 72.2859 45.3619 72.2859 47.0251C72.2859 48.7114 73.0793 49.7514 74.3436 49.7514C75.3235 49.7514 76.0299 49.1764 76.2045 48.2404H77.8135C77.6278 50.0025 76.2758 51.119 74.3384 51.119V51.119ZM82.2298 42.9476C84.5668 42.9476 86.0392 44.5187 86.0392 47.0363C86.0392 49.5486 84.5668 51.119 82.2298 51.119C79.8868 51.119 78.4204 49.5486 78.4204 47.0363C78.4204 44.5187 79.8868 42.9476 82.2298 42.9476ZM82.2298 44.3271C80.938 44.3271 80.106 45.3782 80.106 47.0363C80.106 48.6891 80.9328 49.7343 82.2298 49.7343C83.5216 49.7343 84.3477 48.6891 84.3477 47.0363C84.3477 45.3782 83.5216 44.3271 82.2298 44.3271Z" fill="#1E8D44"></path>
</g>
<defs>
<clipPath id="clip0_5556_21133">
<rect width="131.486" height="52" fill="white"></rect>
</clipPath>
</defs>
</svg>
